inDegrees=yes
name=ik_S54_A02_T01
DataType=double
version=3
OpenSimVersion=4.3-2021-08-27-4bc7ad9
endheader
time	pelvis_tilt	pelvis_list	pelvis_rotation	pelvis_tx	pelvis_ty	pelvis_tz	hip_flexion_r	hip_adduction_r	hip_rotation_r	knee_angle_r	knee_angle_r_beta	ankle_angle_r	subtalar_angle_r	mtp_angle_r	hip_flexion_l	hip_adduction_l	hip_rotation_l	knee_angle_l	knee_angle_l_beta	ankle_angle_l	subtalar_angle_l	mtp_angle_l	lumbar_extension	lumbar_bending	lumbar_rotation	arm_flex_r	arm_add_r	arm_rot_r	elbow_flex_r	pro_sup_r	wrist_flex_r	wrist_dev_r	arm_flex_l	arm_add_l	arm_rot_l	elbow_flex_l	pro_sup_l	wrist_flex_l	wrist_dev_l
9.77999999999988	-1.416686053587896	3.328380900376666	-112.2813166700156	0	0.9399999999999999	0	11.89777816147321	-1.822392686542607	3.58458347470874	16.57230278259074	0.2892412481936265	0	0	0	5.382616152394657	4.348349212477291	-14.66322117580456	5.403682082694224	0.0943120440740387	0	0	0	0	0	0	25.97164255713803	-25.97164255713803	3.864043019776715	69.36031439691443	86.13595719893816	0	0	25.97164255713803	-25.97164255713803	3.864043019776715	69.36031439691443	86.13595719872573	0	0
9.79999999999988	-1.507020616396525	3.313090577696776	-112.6013356138364	0	0.9399999999999999	0	9.9528391887455	-2.370369068001687	3.795587872747067	17.5881221426609	0.3069706406323526	0	0	0	5.933556724999759	3.681433406110422	-15.58675058329442	5.33769443707082	0.09316034239227108	0	0	0	0	0	0	25.97690385706203	-25.97690385706203	3.864660306833329	69.36904301763786	86.13533991191477	0	0	25.97690385706203	-25.97690385706203	3.864660306833329	69.36904301763786	86.13533991170245	0	0
9.819999999999879	-1.438426815723922	3.27198494268916	-112.8164922082606	0	0.9399999999999999	0	7.963480997810547	-3.074076456303769	3.989997108370328	18.49646807663102	0.3228242679272342	0	0	0	6.549469327751291	3.38138639226442	-15.10918068382903	4.981955597628188	0.08695152836677368	0	0	0	0	0	0	25.98119040788586	-25.98119040788585	3.865163727849052	69.37616201905554	86.13483649092611	0	0	25.98119040788586	-25.98119040788585	3.865163727849052	69.37616201905554	86.13483649071387	0	0
9.839999999999879	-1.349987219835582	3.113393835498983	-112.9357644982324	0	0.9399999999999999	0	5.843726285834941	-3.891217787290375	3.970640070931604	19.20811762449819	0.3352448956578453	0	0	0	7.089833449687976	3.009018496854297	-15.18327706467349	4.81509581174697	0.08403927571397368	0	0	0	0	0	0	25.98556318266197	-25.98556318266197	3.865675599632084	69.38339831702828	86.13432461917054	0	0	25.98556318266197	-25.98556318266197	3.865675599632084	69.38339831702828	86.13432461895844	0	0
9.859999999999879	-1.278200143754348	2.952583968457747	-112.965234747143	0	0.9399999999999999	0	3.791688647211565	-4.665614993810669	3.712332386995985	19.84912705919753	0.3464326208296963	0	0	0	7.649851144308627	2.432487237100454	-15.89327822888905	4.928251679115098	0.08601421816749752	0	0	0	0	0	0	25.98980888417856	-25.98980888417855	3.866172547470963	69.39042345294303	86.13382767135838	0	0	25.98980888417856	-25.98980888417855	3.866172547470963	69.39042345294303	86.13382767114632	0	0
9.879999999999878	-1.246385287212201	2.842327452631067	-112.9634259902752	0	0.9399999999999999	0	0.07852341963939423	-5.65367031069597	3.282799852858699	18.91312798817244	0.3300963552447002	0	0	0	8.360299900516942	1.992995184908815	-15.65276866012595	5.157069723608366	0.09000784643187994	0	0	0	0	0	0	26.0424023907728	-26.0424023907728	3.871508479207645	69.46488218619709	86.12849173990217	0	0	26.0424023907728	-26.0424023907728	3.871508479207645	69.46488218619709	86.12849173969111	0	0
9.899999999999878	-1.308149993232883	2.825237045278104	-112.9767462536475	0	0.9399999999999999	0	-1.519066124781418	-6.154032044952823	3.18908097776367	19.46660215418432	0.3397563017663372	0	0	0	9.168720853560725	1.547758312694804	-15.20767554785548	5.267292786912769	0.0919316017981759	0	0	0	0	0	0	26.04661114738175	-26.04661114738175	3.872000492147768	69.47183561255912	86.12799972698845	0	0	26.04661114738175	-26.04661114738175	3.872000492147768	69.47183561255912	86.12799972677752	0	0
9.919999999999877	-1.501223186523063	2.868741739558761	-112.9601440134887	0	0.9399999999999999	0	-2.892328473447423	-6.385580039417556	3.172043354440464	20.16907918004532	0.3520168387872289	0	0	0	10.0422420617841	0.709567376503345	-15.36845939388136	5.701675593586195	0.09951301198868119	0	0	0	0	0	0	26.05143099450628	-26.05143099450627	3.872563114226837	69.47978581410882	86.12743710493959	0	0	26.05143099450628	-26.05143099450627	3.872563114226837	69.47978581410882	86.12743710472874	0	0
9.939999999999877	-1.730894111814718	3.023101958228656	-112.9341591095024	0	0.9399999999999999	0	-3.929979892217718	-6.249660877197803	3.500681894468797	20.80102037848081	0.3630462933789272	0	0	0	11.18347392250856	-0.2432825096806393	-15.14654171815608	6.305342343137995	0.1100489843531721	0	0	0	0	0	0	26.05777137052826	-26.05777137052825	3.873303446180836	69.49024701790644	86.12669677302536	0	0	26.05777137052826	-26.05777137052825	3.873303446180836	69.49024701790644	86.12669677281465	0	0
9.959999999999877	-2.029932559712534	3.230847204826201	-112.9096873080706	0	0.9399999999999999	0	-4.895544350765786	-5.761532776748897	4.358346222591652	21.98007439616843	0.3836246680464436	0	0	0	12.38366824995889	-1.072261095428779	-14.04311883186804	6.718607919781687	0.1172618293507575	0	0	0	0	0	0	26.0670505568252	-26.0670505568252	3.874387538017455	69.5055658791118	86.12561268124706	0	0	26.0670505568252	-26.0670505568252	3.874387538017455	69.5055658791118	86.12561268103651	0	0
9.979999999999876	-2.449296941046298	3.419966806160798	-112.889023400723	0	0.9399999999999999	0	-5.884093506298377	-4.926983382055863	5.051532410413351	20.98160300799564	0.3661980548358701	0	0	0	13.44471967365605	-2.108261970159791	-12.90864482792618	6.923881223873752	0.1208445243736116	0	0	0	0	0	0	26.07390070673019	-26.07390070673019	3.875189124945666	69.51689407766112	86.12481109436197	0	0	26.07390070673019	-26.07390070673019	3.875189124945666	69.51689407766112	86.12481109415157	0	0
9.999999999999876	-2.660380321342766	3.450629715398763	-112.84079309037	0	0.9399999999999999	0	-6.770589809036399	-4.203762851290836	5.297000107209311	20.41923734512115	0.3563829224185499	0	0	0	14.27368351723507	-3.057685417502948	-12.39523747248412	6.897496485405954	0.1203840238150709	0	0	0	0	0	0	26.08041052348982	-26.08041052348982	3.875951865311966	69.52767415230974	86.12404835403666	0	0	26.08041052348982	-26.08041052348982	3.875951865311966	69.52767415230974	86.12404835382647	0	0
10.01999999999988	-3.028509179775111	3.422903395994875	-112.6473981660273	0	0.9399999999999999	0	-6.954009866390018	-3.757331596493476	5.120864448989937	19.70882251463681	0.3439838445716007	0	0	0	14.09575805496933	-3.421654659621144	-12.08728278112272	5.639104879906349	0.09842094701964522	0	0	0	0	0	0	26.08544728888464	-26.08544728888464	3.876538831642896	69.53596624594628	86.12346138773735	0	0	26.08544728888464	-26.08544728888464	3.876538831642896	69.53596624594628	86.1234613875271	0	0
10.03999999999987	-3.279626699027141	3.268874954483695	-112.3970822827972	0	0.9399999999999999	0	-7.849408467416784	-2.878812666923779	4.756293432634963	17.96006288410997	0.3134622311929478	0	0	0	14.60750779025545	-4.300742236015188	-11.96682311878477	5.130853895746923	0.08955029391956168	0	0	0	0	0	0	26.09187892644574	-26.09187892644573	3.877291944740967	69.5466091419776	86.12270827467977	0	0	26.09187892644574	-26.09187892644573	3.877291944740967	69.5466091419776	86.12270827446969	0	0
10.05999999999987	-3.431586810157502	3.04506219126252	-112.15786950925	0	0.9399999999999999	0	-8.683996503545073	-2.226072998239276	4.192643196881506	17.49530063352213	0.305350599681211	0	0	0	15.40495880958536	-5.875104011725281	-12.64726809845069	3.328835725020482	0.05809914365962	0	0	0	0	0	0	26.07140114434844	-26.07140114434844	3.875384779099391	69.5202061440297	86.12461544022248	0	0	26.07140114434844	-26.07140114434844	3.875384779099391	69.5202061440297	86.12461544001204	0	0
10.07999999999987	-3.49682375251806	2.867819566802837	-111.9326906837679	0	0.9399999999999999	0	-9.226605580464037	-1.462756911429635	2.91486841847022	15.68522258478208	0.2737587780126227	0	0	0	15.66186356882238	-6.495173452150324	-12.37939682715418	2.167401763817066	0.03782829699214031	0	0	0	0	0	0	26.07981509706227	-26.07981509706226	3.876371802383821	69.53415695441193	86.1236284169911	0	0	26.07981509706227	-26.07981509706226	3.876371802383821	69.53415695441193	86.12362841678086	0	0
10.09999999999987	-3.57117337410397	2.810464565706831	-111.7864975467919	0	0.9399999999999999	0	-9.146736130801051	-0.8769219467782768	1.99214598638826	15.90881867185782	0.2776612659266702	0	0	0	16.07879467598601	-7.026775777588026	-11.71338599595991	1.808959433606541	0.0315722981514459	0	0	0	0	0	0	26.08234721387342	-26.08234721387342	3.876669026213504	69.53835816063301	86.12333119317742	0	0	26.08234721387342	-26.08234721387342	3.876669026213504	69.53835816063301	86.12333119296721	0	0
10.11999999999987	-3.799014825918792	2.763936939713489	-111.8731931515185	0	0.9399999999999999	0	-8.634236385829139	0.3921297697749517	0.8411929399086566	12.97381091808944	0.2264357170518492	0	0	0	16.46269175325567	-7.805293046072218	-11.88387185442531	0.6801286818572149	0.01187048483565742	0	0	0	0	0	0	26.04879830895824	-26.04879830895824	3.873487022825329	69.49423220682948	86.12651319640013	0	0	26.04879830895824	-26.04879830895824	3.873487022825329	69.49423220682948	86.12651319618936	0	0
10.13999999999987	-4.277311979271596	2.650901434593702	-112.0668483125973	0	0.9399999999999999	0	-8.088029333128908	1.513406018230768	1.479223391813952	13.67532236479924	0.2386794015373639	0	0	0	16.11959849183263	-8.388393804659279	-12.0233289115346	-0.9917040538042837	-0.01730850094425975	0	0	0	0	0	0	26.05312852709611	-26.05312852709611	3.873994860924608	69.50141047704119	86.12600535832814	0	0	26.05312852709611	-26.05312852709611	3.873994860924608	69.50141047704119	86.12600535811745	0	0
10.15999999999987	-4.838811978201806	2.4707280602027	-112.3307806183731	0	0.9399999999999999	0	-7.996417004359904	2.597362003082941	2.213507327380771	10.4460856871605	0.182318589186405	0	0	0	16.5922660948401	-9.929695287744801	-15.52351310317344	-0.7886070030994973	-0.01376378870837136	0	0	0	0	0	0	26.06714812816147	-26.06714812816146	3.875558628119241	69.52341814030719	86.12444159121698	0	0	26.06714812816147	-26.06714812816146	3.875558628119241	69.52341814030719	86.12444159100654	0	0
